<svg enable-background="new 0 0 512 512" viewBox="0 0 512 512" xmlns="http://www.w3.org/2000/svg" xmlns:xlink="http://www.w3.org/1999/xlink"><linearGradient id="a"><stop offset="0" stop-color="#f99d24"/><stop offset=".4676" stop-color="#ff3c82"/><stop offset=".6899" stop-color="#c74ab6"/><stop offset=".8967" stop-color="#9955e1"/><stop offset="1" stop-color="#8759f2"/></linearGradient><linearGradient id="b" gradientTransform="matrix(.7071 .7071 -.7071 .7071 1072.4222 -2008.4933)" gradientUnits="userSpaceOnUse" x1="771.5532" x2="1088.3308" xlink:href="#a" y1="2195.1611" y2="2195.1611"/><linearGradient id="c" gradientTransform="matrix(.7071 .7071 -.7071 .7071 1072.4222 -2008.4933)" gradientUnits="userSpaceOnUse" x1="825.233" x2="1025.0513" y1="2267.7332" y2="2267.7332"><stop offset="0" stop-color="#ff3c82"/><stop offset=".007632017" stop-color="#fe3c83"/><stop offset=".4786" stop-color="#be4cbf"/><stop offset=".8221" stop-color="#9655e4"/><stop offset="1" stop-color="#8759f2"/></linearGradient><linearGradient id="d" gradientTransform="matrix(.7071 .7071 -.7071 .7071 1072.4222 -2008.4933)" gradientUnits="userSpaceOnUse" x1="897.9124" x2="1275.8401" xlink:href="#a" y1="2250.5322" y2="2250.5322"/><linearGradient id="e" gradientTransform="matrix(.7071 .7071 -.7071 .7071 1072.4222 -2008.4933)" gradientUnits="userSpaceOnUse" x1="1187.0166" x2="1187.0166" xlink:href="#a" y1="2297.3921" y2="2071.0452"/><linearGradient id="f" gradientTransform="matrix(.7071 .7071 -.7071 .7071 1072.4222 -2008.4933)" gradientUnits="userSpaceOnUse" x1="1055.7302" x2="1055.7302" y1="2267.3867" y2="1888.1299"><stop offset="0" stop-color="#8759f2"/><stop offset=".1033" stop-color="#9955e1"/><stop offset=".3101" stop-color="#c74ab6"/><stop offset=".5324" stop-color="#ff3c82"/><stop offset="1" stop-color="#f99d24"/></linearGradient><linearGradient id="g" gradientTransform="matrix(.7071 .7071 -.7071 .7071 1072.4222 -2008.4933)" gradientUnits="userSpaceOnUse" x1="893.7233" x2="1044.0734" xlink:href="#a" y1="2089.3816" y2="1939.0315"/><linearGradient id="h"><stop offset="0" stop-color="#4629bb"/><stop offset="1" stop-color="#cf77c1"/></linearGradient><linearGradient id="i" gradientTransform="matrix(.7071 .7071 -.7071 .7071 1072.4222 -2008.4933)" gradientUnits="userSpaceOnUse" x1="983.0255" x2="983.0406" xlink:href="#h" y1="2133.1951" y2="2133.1951"/><linearGradient id="j" gradientTransform="matrix(.7071 .7071 -.7071 .7071 1072.4222 -2008.4933)" gradientUnits="userSpaceOnUse" x1="1087.4594" x2="1088.3309" xlink:href="#h" y1="2037.6833" y2="2037.6833"/><linearGradient id="k" gradientTransform="matrix(.7071 .7071 -.7071 .7071 1072.4222 -2008.4933)" gradientUnits="userSpaceOnUse" x1="882.6245" x2="891.2805" xlink:href="#h" y1="2164.4363" y2="2164.4363"/><g clip-rule="evenodd" fill-rule="evenodd"><path d="m394.43 208.63c-20.07 18.49-45.48 33.8-75.86 45.8-8.38-10.57-17.76-21.04-28.08-31.36s-20.77-19.69-31.35-28.07l-.01-.01-.01.01c-25.58-20.32-51.54-34.66-77.59-42.78l.01-.01c-2.43-.76-4.85-1.46-7.26-2.12-3.46-.93-6.92-1.54-10.37-1.87-.09-.01-.17-.02-.26-.03-74.56-10.8-139.2 34-152.02 102.4-6.79-25.3-7.06-52.35-.07-78.41 21.61-80.69 104.83-128.73 185.51-107.11 10 2.66 19.97 5.97 29.89 9.88 26.6 10.46 52.66 25.24 77.98 44.2 16.28 12.21 32.27 26.13 47.81 41.67s29.46 31.52 41.68 47.81z" fill="url(#b)"/><path d="m149.49 364.08c-10.54-1.58-20.84-3.71-30.82-6.38-25.68-6.88-49.13-20.41-67.85-39.13-19.09-19.09-32.4-42.66-39.19-67.98 12.82-68.4 77.46-113.2 152.03-102.39-30.18-2.77-58.95 16.52-67.05 46.76-5.85 21.83.46 45.33 16.47 61.34 7.8 7.8 17.61 13.45 28.37 16.34 2.42.65 4.87 1.25 7.34 1.81-3.77 31.43-3.55 61.35.7 89.63z" fill="url(#c)"/><path d="m386.82 481.42c-13.7 9.21-29 16.19-45.43 20.61-52.12 13.95-108.21-1.09-146.4-39.27-18.72-18.72-32.24-42.17-39.13-67.85-2.67-9.99-4.79-20.27-6.38-30.8 0 0-.01-.01 0-.02-4.25-28.28-4.47-58.2-.7-89.63 2.42-20.22 6.49-41.02 12.17-62.24 5.69-21.21 12.55-41.26 20.58-59.98 26.05 8.13 52.01 22.47 77.59 42.78l.01.01c-4.96 12.52-9.34 25.86-13.11 39.97-3.78 14.1-6.67 27.86-8.65 41.2.01.01.02 0 .02 0-4.79 32.31-4.25 61.95 1.72 88.58l.01.01c.55 2.48 1.15 4.91 1.8 7.33 6.98 65.92 83.97 131.58 145.9 109.3z" fill="url(#d)"/><path d="m386.82 481.42c-61.94 22.29-138.93-43.38-145.89-109.3 2.88 10.76 8.53 20.57 16.34 28.37 16.01 16.01 39.52 22.33 61.34 16.47 16.37-4.38 30.05-14.86 38.51-29.55 8.48-14.66 10.73-31.76 6.35-48.13-.66-2.41-1.36-4.83-2.11-7.25 29.11-12.46 54.92-27.62 77.27-45.41 3.91 9.92 7.21 19.89 9.87 29.88 10.48 39.07 5.11 79.89-15.12 114.94-11.73 20.31-27.64 37.26-46.56 49.98z" fill="url(#e)"/><path d="m438.61 286.59.02.02c-22.35 17.8-48.16 32.95-77.27 45.41l-.01.01c-18.73 8.01-38.76 14.88-59.99 20.57-21.22 5.68-42.02 9.75-62.24 12.17-5.97-26.64-6.52-56.28-1.72-88.58 13.33-1.98 27.08-4.86 41.18-8.64 14.09-3.79 27.45-8.15 39.97-13.11l.01-.01c30.38-12 55.79-27.31 75.86-45.8 1.85-1.72 3.68-3.47 5.44-5.23 2.76-2.76 5.2-5.7 7.34-8.78 62.75-75.77 24.13-151.14-29.88-185.83 31.05 4.56 60.95 18.79 84.8 42.65 59.06 59.06 59.07 155.16 0 214.23-7.3 7.3-15.15 14.3-23.51 20.92z" fill="url(#f)"/><path d="m407.21 194.62c17.09-24.71 14.63-58.94-7.34-80.92-24.74-24.74-64.97-24.73-89.7 0-1.77 1.77-3.51 3.59-5.22 5.45-25.32-18.97-51.38-33.75-77.98-44.2 6.64-8.33 13.63-16.2 20.94-23.51 35.22-35.2 83.57-49.42 129.41-42.66l.01.01c54.01 34.69 92.64 110.06 29.88 185.83z" fill="url(#g)"/><path d="m259.15 195.01-.01.01-.02-.01.01-.01z" fill="url(#i)"/><path d="m394.43 208.63c4.67-4.67 8.92-9.34 12.78-14.02" fill="url(#j)"/><path d="m174.29 150.1c-3.48-.74-6.94-1.36-10.37-1.87" fill="url(#k)"/></g></svg>